<svg width="30" height="30" viewBox="0 0 30 30" fill="none" xmlns="http://www.w3.org/2000/svg">
<path d="M29.9398 1.86398C29.3648 3.76233 27.9586 8.26106 26.4937 11.6706C26.664 11.7227 26.816 11.7703 26.9569 11.8106C27.2128 11.8884 27.4483 12.0217 27.6468 12.2009C27.8452 12.3802 28.0017 12.601 28.105 12.8476C28.2067 13.095 28.2531 13.3616 28.2411 13.6288C28.2291 13.8959 28.1589 14.1573 28.0355 14.3945C26.7116 16.9253 23.2764 23.1815 19.8614 26.5965C17.6769 28.7757 14.7172 29.9996 11.6316 29.9996C8.54593 29.9996 5.58624 28.7757 3.40172 26.5965C-1.13391 22.062 -1.13391 14.6755 3.40172 10.1411C6.81855 6.72609 13.0754 3.28728 15.6078 1.96924C15.8438 1.84267 16.1051 1.77072 16.3726 1.75868C16.6401 1.74664 16.9069 1.79482 17.1533 1.89968C17.4 2.00306 17.6209 2.15949 17.8003 2.35786C17.9797 2.55623 18.1133 2.79167 18.1915 3.04747C18.2318 3.18843 18.2849 3.34037 18.3325 3.51062C21.7603 2.02782 26.2483 0.63381 28.1398 0.0599131C28.3902 -0.0144139 28.6559 -0.0196843 28.909 0.0446595C29.1621 0.109003 29.3931 0.240568 29.5776 0.425431C29.762 0.610295 29.893 0.841581 29.9568 1.09482C30.0206 1.34805 30.0147 1.61381 29.9398 1.86398V1.86398ZM27.8945 2.10471C25.5269 2.83054 21.1377 4.24835 18.1274 5.65976L17.1368 6.1229L16.831 5.06847C16.668 4.50006 16.516 3.99024 16.3988 3.60398C14.0184 4.91012 7.95383 8.23726 4.7256 11.4655C0.922414 15.2668 0.922414 21.4589 4.7256 25.2665C8.52879 29.0742 14.7289 29.0687 18.5302 25.2665C21.7603 22.0392 25.0874 15.9762 26.3655 13.5213C26.0139 13.4746 25.5031 13.3227 24.9354 13.1579L23.8807 12.8541L24.344 11.8637C25.7448 8.87614 27.173 4.47077 27.8945 2.10471ZM19.2114 18.2782C19.2114 22.4135 15.8477 25.7763 11.7112 25.7763C10.7266 25.7763 9.75153 25.5824 8.8418 25.2056C7.93208 24.8288 7.10549 24.2765 6.40922 23.5802C5.71295 22.8839 5.16063 22.0573 4.78381 21.1476C4.40699 20.2379 4.21305 19.2628 4.21305 18.2782C4.21305 17.2935 4.40699 16.3185 4.78381 15.4087C5.16063 14.499 5.71295 13.6724 6.40922 12.9761C7.10549 12.2799 7.93208 11.7276 8.8418 11.3507C9.75153 10.9739 10.7266 10.78 11.7112 10.78C15.8477 10.78 19.2169 14.1483 19.2114 18.2782V18.2782ZM17.3364 18.2837C17.3367 17.171 17.007 16.0833 16.3891 15.1581C15.7712 14.2329 14.8927 13.5116 13.8649 13.0857C12.8371 12.6597 11.706 12.5481 10.6147 12.7649C9.52347 12.9818 8.52103 13.5174 7.7342 14.3041C6.94736 15.0907 6.41147 16.093 6.1943 17.1842C5.97713 18.2754 6.08844 19.4065 6.51415 20.4345C6.93986 21.4624 7.66085 22.341 8.58593 22.9592C9.51101 23.5773 10.5986 23.9073 11.7112 23.9073C14.8168 23.9073 17.3419 21.3829 17.3364 18.2837V18.2837ZM12.18 16.4036C12.1801 16.6818 12.0977 16.9537 11.9432 17.185C11.7887 17.4163 11.5691 17.5966 11.3121 17.7031C11.0552 17.8096 10.7724 17.8375 10.4996 17.7833C10.2268 17.7291 9.97617 17.5952 9.77946 17.3985C9.58275 17.2019 9.44877 16.9513 9.39448 16.6785C9.34019 16.4057 9.36802 16.1229 9.47445 15.8659C9.58087 15.6089 9.76112 15.3893 9.99239 15.2347C10.2237 15.0802 10.4956 14.9977 10.7737 14.9977C10.9585 14.9973 11.1415 15.0335 11.3122 15.104C11.483 15.1745 11.6381 15.278 11.7688 15.4087C11.8994 15.5393 12.003 15.6944 12.0736 15.8651C12.1441 16.0359 12.1803 16.2189 12.18 16.4036V16.4036ZM14.055 20.6268C14.0551 20.8123 14.0001 20.9936 13.8972 21.1478C13.7942 21.302 13.6478 21.4222 13.4765 21.4932C13.3052 21.5642 13.1166 21.5828 12.9348 21.5466C12.7529 21.5105 12.5858 21.4212 12.4547 21.2901C12.3235 21.159 12.2342 20.9919 12.198 20.8101C12.1618 20.6282 12.1804 20.4397 12.2513 20.2684C12.3223 20.097 12.4425 19.9506 12.5966 19.8476C12.7508 19.7446 12.9321 19.6896 13.1175 19.6896C13.3659 19.6903 13.6039 19.7893 13.7795 19.9649C13.9552 20.1405 14.0542 20.3785 14.055 20.6268L14.055 20.6268Z" fill="#F28705"/>
</svg>
